<svg width="73" height="16" viewBox="0 0 73 16" fill="none" xmlns="http://www.w3.org/2000/svg">
<path d="M1.572 0.72L3.852 6.3L6.12 0.72H7.692V8.88H6.312V5.76L6.492 2.904L4.464 7.92H3.18L1.2 2.892L1.38 5.76V8.88H0V0.72H1.572Z" fill="#7B6262"/>
<path d="M14.3772 8.94C13.9692 8.94 13.6412 8.856 13.3932 8.688C13.1532 8.52 12.9772 8.312 12.8652 8.064C12.5212 8.384 12.1892 8.62 11.8692 8.772C11.5492 8.924 11.2052 9 10.8372 9C10.3012 9 9.90522 8.828 9.64922 8.484C9.40122 8.14 9.27722 7.704 9.27722 7.176C9.27722 6.824 9.34122 6.516 9.46922 6.252C9.60522 5.98 9.82522 5.768 10.1292 5.616C10.4332 5.464 10.8492 5.388 11.3772 5.388C11.5852 5.388 11.8012 5.404 12.0252 5.436C12.2492 5.46 12.4732 5.492 12.6972 5.532V4.824C12.6972 4.488 12.6052 4.26 12.4212 4.14C12.2372 4.012 11.9892 3.948 11.6772 3.948C11.4372 3.948 11.1732 3.98 10.8852 4.044C10.6052 4.108 10.3012 4.208 9.97322 4.344L9.57722 3.168C10.3852 2.84 11.1172 2.676 11.7732 2.676C12.3652 2.676 12.8212 2.776 13.1412 2.976C13.4692 3.176 13.6972 3.44 13.8252 3.768C13.9532 4.096 14.0172 4.448 14.0172 4.824V7.164C14.0172 7.284 14.0492 7.4 14.1132 7.512C14.1852 7.616 14.3212 7.668 14.5212 7.668H14.6532V8.94H14.3772ZM10.6092 7.152C10.6092 7.368 10.6572 7.54 10.7532 7.668C10.8492 7.788 10.9892 7.848 11.1732 7.848C11.3572 7.848 11.5652 7.8 11.7972 7.704C12.0292 7.608 12.3292 7.384 12.6972 7.032V6.516C12.2812 6.444 11.8732 6.408 11.4732 6.408C11.1612 6.408 10.9372 6.472 10.8012 6.6C10.6732 6.728 10.6092 6.912 10.6092 7.152Z" fill="#7B6262"/>
<path d="M19.5112 8.676C19.3032 8.772 19.0633 8.848 18.7913 8.904C18.5193 8.968 18.2432 9 17.9632 9C17.4992 9 17.1273 8.904 16.8472 8.712C16.5673 8.52 16.3633 8.252 16.2353 7.908C16.1153 7.564 16.0553 7.172 16.0553 6.732V3.996H15.0712V2.796H16.0553V1.212H17.4352V2.796H19.3312V3.996H17.4352V6.732C17.4352 7.1 17.5032 7.356 17.6392 7.5C17.7832 7.636 17.9872 7.704 18.2512 7.704C18.3792 7.704 18.5153 7.692 18.6593 7.668C18.8113 7.636 18.9792 7.584 19.1632 7.512L19.5112 8.676Z" fill="#7B6262"/>
<path d="M25.2408 8.532C24.8248 8.7 24.4328 8.82 24.0648 8.892C23.6968 8.964 23.3488 9 23.0208 9C22.1168 9 21.4328 8.744 20.9688 8.232C20.5048 7.72 20.2728 7.04 20.2728 6.192V5.472C20.2728 4.904 20.3768 4.412 20.5848 3.996C20.7928 3.58 21.0888 3.256 21.4728 3.024C21.8568 2.792 22.3088 2.676 22.8288 2.676C23.2528 2.676 23.6488 2.764 24.0168 2.94C24.3928 3.108 24.6968 3.376 24.9288 3.744C25.1688 4.104 25.2888 4.568 25.2888 5.136C25.2888 5.304 25.2768 5.484 25.2528 5.676C25.2288 5.86 25.1888 6.056 25.1328 6.264H21.6048C21.6208 6.76 21.7448 7.132 21.9768 7.38C22.2088 7.628 22.5808 7.752 23.0928 7.752C23.3648 7.752 23.6448 7.72 23.9328 7.656C24.2288 7.592 24.5328 7.496 24.8448 7.368L25.2408 8.532ZM22.8288 3.84C22.4608 3.84 22.1728 3.96 21.9648 4.2C21.7648 4.432 21.6488 4.768 21.6168 5.208H23.9208C23.9288 5.168 23.9328 5.132 23.9328 5.1C23.9328 5.06 23.9328 5.024 23.9328 4.992C23.9328 4.608 23.8248 4.32 23.6088 4.128C23.3928 3.936 23.1328 3.84 22.8288 3.84Z" fill="#7B6262"/>
<path d="M30.3106 4.056C29.9346 4.056 29.5746 4.116 29.2306 4.236C28.8946 4.348 28.5706 4.532 28.2586 4.788V8.88H26.8786V2.796H28.1866V3.732C28.5946 3.348 28.9586 3.076 29.2786 2.916C29.5986 2.756 29.9426 2.676 30.3106 2.676V4.056Z" fill="#7B6262"/>
<path d="M32.9352 1.644H31.4832V0.215999H32.9352V1.644ZM32.8992 8.88H31.5192V2.796H32.8992V8.88Z" fill="#7B6262"/>
<path d="M39.4085 8.94C39.0005 8.94 38.6725 8.856 38.4245 8.688C38.1845 8.52 38.0085 8.312 37.8965 8.064C37.5525 8.384 37.2205 8.62 36.9005 8.772C36.5805 8.924 36.2365 9 35.8685 9C35.3325 9 34.9365 8.828 34.6805 8.484C34.4325 8.14 34.3085 7.704 34.3085 7.176C34.3085 6.824 34.3725 6.516 34.5005 6.252C34.6365 5.98 34.8565 5.768 35.1605 5.616C35.4645 5.464 35.8805 5.388 36.4085 5.388C36.6165 5.388 36.8325 5.404 37.0565 5.436C37.2805 5.46 37.5045 5.492 37.7285 5.532V4.824C37.7285 4.488 37.6365 4.26 37.4525 4.14C37.2685 4.012 37.0205 3.948 36.7085 3.948C36.4685 3.948 36.2045 3.98 35.9165 4.044C35.6365 4.108 35.3325 4.208 35.0045 4.344L34.6085 3.168C35.4165 2.84 36.1485 2.676 36.8045 2.676C37.3965 2.676 37.8525 2.776 38.1725 2.976C38.5005 3.176 38.7285 3.44 38.8565 3.768C38.9845 4.096 39.0485 4.448 39.0485 4.824V7.164C39.0485 7.284 39.0805 7.4 39.1445 7.512C39.2165 7.616 39.3525 7.668 39.5525 7.668H39.6845V8.94H39.4085ZM35.6405 7.152C35.6405 7.368 35.6885 7.54 35.7845 7.668C35.8805 7.788 36.0205 7.848 36.2045 7.848C36.3885 7.848 36.5965 7.8 36.8285 7.704C37.0605 7.608 37.3605 7.384 37.7285 7.032V6.516C37.3125 6.444 36.9045 6.408 36.5045 6.408C36.1925 6.408 35.9685 6.472 35.8325 6.6C35.7045 6.728 35.6405 6.912 35.6405 7.152Z" fill="#7B6262"/>
<path d="M40.8465 7.164V0H42.2265V7.164C42.2265 7.284 42.2545 7.4 42.3105 7.512C42.3745 7.616 42.4945 7.668 42.6705 7.668H42.8625V8.94H42.5265C42.0705 8.94 41.7225 8.852 41.4825 8.676C41.2425 8.5 41.0745 8.276 40.9785 8.004C40.8905 7.732 40.8465 7.452 40.8465 7.164Z" fill="#7B6262"/>
<path d="M50.1509 3.936V5.652C50.1509 6.692 49.8909 7.512 49.3709 8.112C48.8509 8.704 48.0909 9 47.0909 9C46.0829 9 45.3189 8.704 44.7989 8.112C44.2869 7.512 44.0309 6.692 44.0309 5.652V3.936C44.0309 2.896 44.2869 2.08 44.7989 1.488C45.3189 0.895999 46.0829 0.599999 47.0909 0.599999C48.0909 0.599999 48.8509 0.895999 49.3709 1.488C49.8909 2.08 50.1509 2.896 50.1509 3.936ZM48.6749 3.936C48.6749 3.28 48.5469 2.788 48.2909 2.46C48.0349 2.124 47.6349 1.956 47.0909 1.956C46.5469 1.956 46.1469 2.124 45.8909 2.46C45.6349 2.788 45.5069 3.28 45.5069 3.936V5.652C45.5069 6.308 45.6349 6.804 45.8909 7.14C46.1469 7.476 46.5469 7.644 47.0909 7.644C47.6349 7.644 48.0349 7.476 48.2909 7.14C48.5469 6.804 48.6749 6.308 48.6749 5.652V3.936Z" fill="#7B6262"/>
<path d="M54.8507 3.96C54.6507 3.96 54.4227 4.008 54.1667 4.104C53.9107 4.2 53.6067 4.388 53.2547 4.668V8.88H51.8747V2.796H53.1827V3.612C53.5587 3.284 53.9147 3.048 54.2507 2.904C54.5867 2.752 54.9267 2.676 55.2707 2.676C55.8547 2.676 56.2987 2.864 56.6027 3.24C56.9067 3.608 57.0587 4.128 57.0587 4.8V8.88H55.6787V4.968C55.6787 4.296 55.4027 3.96 54.8507 3.96Z" fill="#7B6262"/>
<path d="M63.5025 8.532C63.0865 8.7 62.6945 8.82 62.3265 8.892C61.9585 8.964 61.6105 9 61.2825 9C60.3785 9 59.6945 8.744 59.2305 8.232C58.7665 7.72 58.5345 7.04 58.5345 6.192V5.472C58.5345 4.904 58.6385 4.412 58.8465 3.996C59.0545 3.58 59.3505 3.256 59.7345 3.024C60.1185 2.792 60.5705 2.676 61.0905 2.676C61.5145 2.676 61.9105 2.764 62.2785 2.94C62.6545 3.108 62.9585 3.376 63.1905 3.744C63.4305 4.104 63.5505 4.568 63.5505 5.136C63.5505 5.304 63.5385 5.484 63.5145 5.676C63.4905 5.86 63.4505 6.056 63.3945 6.264H59.8665C59.8825 6.76 60.0065 7.132 60.2385 7.38C60.4705 7.628 60.8425 7.752 61.3545 7.752C61.6265 7.752 61.9065 7.72 62.1945 7.656C62.4905 7.592 62.7945 7.496 63.1065 7.368L63.5025 8.532ZM61.0905 3.84C60.7225 3.84 60.4345 3.96 60.2265 4.2C60.0265 4.432 59.9105 4.768 59.8785 5.208H62.1825C62.1905 5.168 62.1945 5.132 62.1945 5.1C62.1945 5.06 62.1945 5.024 62.1945 4.992C62.1945 4.608 62.0865 4.32 61.8705 4.128C61.6545 3.936 61.3945 3.84 61.0905 3.84Z" fill="#7B6262"/>
<path d="M72.6547 7.032H71.8027V8.88H70.4107V7.032H66.9067V5.868C67.2667 5.308 67.6227 4.74 67.9747 4.164C68.3347 3.58 68.6707 3 68.9827 2.424C69.2947 1.84 69.5507 1.272 69.7507 0.72H71.3227C71.0267 1.536 70.6267 2.376 70.1227 3.24C69.6187 4.096 69.0987 4.932 68.5627 5.748H70.4107V4.512H71.8027V5.748H72.6547V7.032Z" fill="#7B6262"/>
<path d="M1.16635 13.7682C1.40186 13.7682 1.58317 13.7177 1.71027 13.6168C1.83738 13.5121 1.90093 13.3607 1.90093 13.1626C1.90093 12.9981 1.85607 12.8598 1.76635 12.7477C1.68037 12.6355 1.53831 12.5495 1.34018 12.4897L0.885978 12.3551C0.601867 12.2692 0.392522 12.1402 0.257943 11.9682C0.123364 11.7925 0.0560746 11.5776 0.0560746 11.3234C0.0560746 11.129 0.0934576 10.9533 0.168224 10.7963C0.246728 10.6392 0.370092 10.514 0.538316 10.4206C0.710278 10.3271 0.934576 10.2804 1.21121 10.2804C1.37943 10.2804 1.55327 10.3009 1.7327 10.3421C1.91214 10.3794 2.09345 10.4411 2.27663 10.5271L2.11962 10.9477C1.94018 10.8692 1.77756 10.8131 1.63177 10.7794C1.48971 10.7421 1.35327 10.7234 1.22243 10.7234C1.00934 10.7234 0.842988 10.7682 0.723362 10.8579C0.607474 10.9439 0.549531 11.0878 0.549531 11.2897C0.549531 11.4355 0.588783 11.5589 0.667287 11.6598C0.745792 11.757 0.885978 11.8374 1.08785 11.9009L1.54205 12.0355C2.11027 12.2037 2.39438 12.5663 2.39438 13.1234C2.39438 13.4448 2.29719 13.7065 2.1028 13.9084C1.9084 14.1065 1.59626 14.2056 1.16635 14.2056C0.990651 14.2056 0.803735 14.185 0.605605 14.1439C0.411213 14.0991 0.209345 14.0299 0 13.9364L0.151401 13.5215C0.349531 13.6112 0.527101 13.6748 0.68411 13.7121C0.844857 13.7495 1.0056 13.7682 1.16635 13.7682Z" fill="#4475AF"/>
<path d="M4.83284 14.1495L4.0534 12.8654C3.98237 12.9364 3.90761 13.0093 3.8291 13.0841C3.7506 13.1589 3.66836 13.2336 3.58238 13.3084V14.1495H3.12256V10H3.58238V12.7925C3.82537 12.557 4.04032 12.3271 4.22723 12.1028C4.41789 11.8785 4.59172 11.6355 4.74873 11.3738H5.27583C5.14125 11.5981 5.00293 11.8056 4.86088 11.9963C4.72256 12.1832 4.56555 12.3738 4.38985 12.5682L5.38798 14.1495H4.83284Z" fill="#4475AF"/>
<path d="M6.91776 14.4299C6.79814 14.7663 6.65047 15.0112 6.47477 15.1645C6.30281 15.3215 6.06169 15.4 5.75141 15.4V14.9458C5.87851 14.942 5.98692 14.9252 6.07664 14.8953C6.1701 14.8654 6.25234 14.8037 6.32337 14.7103C6.39814 14.6205 6.46916 14.486 6.53645 14.3065L6.59253 14.1663L5.5944 11.3738H6.06543L6.53085 12.7252L6.81683 13.5888L7.09159 12.7252L7.5458 11.3738H8L6.91776 14.4299Z" fill="#4475AF"/>
</svg>
